<?xml version="1.0" encoding="UTF-8" standalone="no"?>
<svg
   xmlns:dc="http://purl.org/dc/elements/1.1/"
   xmlns:cc="http://creativecommons.org/ns#"
   xmlns:rdf="http://www.w3.org/1999/02/22-rdf-syntax-ns#"
   xmlns:svg="http://www.w3.org/2000/svg"
   xmlns="http://www.w3.org/2000/svg"
   xmlns:sodipodi="http://sodipodi.sourceforge.net/DTD/sodipodi-0.dtd"
   xmlns:inkscape="http://www.inkscape.org/namespaces/inkscape"
   width="132.06784mm"
   height="152.49881mm"
   viewBox="0 0 132.06784 152.49881"
   version="1.1"
   id="svg8"
   inkscape:version="1.0.1 (3bc2e813f5, 2020-09-07)"
   sodipodi:docname="logo.svg"
   inkscape:export-filename="C:\Users\apdev\Documents\github\R-packages\contributor\slackr\man\figures\logo.png"
   inkscape:export-xdpi="46.16"
   inkscape:export-ydpi="46.16">
  <defs
     id="defs2">
    <clipPath
       clipPathUnits="userSpaceOnUse"
       id="clipPath842">
      <path
         sodipodi:type="star"
         style="opacity:1;fill:none;fill-opacity:0.97979796;stroke:#ffffff;stroke-width:3.11897802;stroke-miterlimit:4;stroke-dasharray:none;stroke-dashoffset:0;stroke-opacity:1"
         id="path844"
         sodipodi:sides="6"
         sodipodi:cx="82.041534"
         sodipodi:cy="193.5974"
         sodipodi:r1="73.940002"
         sodipodi:r2="64.03392"
         sodipodi:arg1="0.52359878"
         sodipodi:arg2="1.0471976"
         inkscape:flatsided="true"
         inkscape:rounded="0"
         inkscape:randomized="0"
         d="m 146.07545,230.5674 -64.033916,36.97 -64.03392,-36.97 0,-73.94 64.033921,-36.97001 64.033925,36.97001 z"
         inkscape:transform-center-x="3.0492663e-06"
         inkscape:transform-center-y="-6.6020762e-06" />
    </clipPath>
    <clipPath
       clipPathUnits="userSpaceOnUse"
       id="clipPath831">
      <path
         sodipodi:type="star"
         style="opacity:1;fill:none;fill-opacity:0.97979796;stroke:#a71b1e;stroke-width:4;stroke-miterlimit:4;stroke-dasharray:none;stroke-dashoffset:0;stroke-opacity:1"
         id="path833"
         sodipodi:sides="6"
         sodipodi:cx="102.62011"
         sodipodi:cy="146.68599"
         sodipodi:r1="73.940002"
         sodipodi:r2="64.03392"
         sodipodi:arg1="0.52359878"
         sodipodi:arg2="1.0471976"
         inkscape:flatsided="true"
         inkscape:rounded="0"
         inkscape:randomized="0"
         d="m 166.65403,183.65599 -64.03392,36.97 -64.033921,-36.97 0,-73.94 64.033921,-36.970003 64.03392,36.970003 z"
         inkscape:transform-center-x="3.0492663e-06"
         inkscape:transform-center-y="-6.6020762e-06" />
    </clipPath>
    <clipPath
       clipPathUnits="userSpaceOnUse"
       id="clipPath868">
      <path
         sodipodi:type="star"
         style="opacity:1;fill:none;fill-opacity:0.97979796;stroke:#a71b1e;stroke-width:4;stroke-miterlimit:4;stroke-dasharray:none;stroke-dashoffset:0;stroke-opacity:1"
         id="path870"
         sodipodi:sides="6"
         sodipodi:cx="102.62011"
         sodipodi:cy="146.68599"
         sodipodi:r1="73.940002"
         sodipodi:r2="64.03392"
         sodipodi:arg1="0.52359878"
         sodipodi:arg2="1.0471976"
         inkscape:flatsided="true"
         inkscape:rounded="0"
         inkscape:randomized="0"
         d="m 166.65403,183.65599 -64.03392,36.97 -64.033921,-36.97 0,-73.94 64.033921,-36.970003 64.03392,36.970003 z"
         inkscape:transform-center-x="3.0492663e-06"
         inkscape:transform-center-y="-6.6020762e-06" />
    </clipPath>
    <clipPath
       clipPathUnits="userSpaceOnUse"
       id="clipPath885">
      <path
         sodipodi:type="star"
         style="opacity:1;fill:none;fill-opacity:0.97979796;stroke:#a71b1e;stroke-width:4;stroke-miterlimit:4;stroke-dasharray:none;stroke-dashoffset:0;stroke-opacity:1"
         id="path887"
         sodipodi:sides="6"
         sodipodi:cx="102.62011"
         sodipodi:cy="146.68599"
         sodipodi:r1="73.940002"
         sodipodi:r2="64.03392"
         sodipodi:arg1="0.52359878"
         sodipodi:arg2="1.0471976"
         inkscape:flatsided="true"
         inkscape:rounded="0"
         inkscape:randomized="0"
         d="m 166.65403,183.65599 -64.03392,36.97 -64.033921,-36.97 0,-73.94 64.033921,-36.970003 64.03392,36.970003 z"
         inkscape:transform-center-x="3.0492663e-06"
         inkscape:transform-center-y="-6.6020762e-06" />
    </clipPath>
    <mask
       maskUnits="userSpaceOnUse"
       id="mask4825">
      <g
         id="g4831">
        <rect
           style="opacity:1;vector-effect:none;fill:#578dc5;fill-opacity:1;stroke:none;stroke-width:0.1457504;stroke-linecap:butt;stroke-linejoin:miter;stroke-miterlimit:4;stroke-dasharray:none;stroke-dashoffset:0;stroke-opacity:1"
           id="rect4827"
           width="33.598763"
           height="33.598763"
           x="68.167076"
           y="168.22989" />
        <rect
           style="opacity:1;vector-effect:none;fill:#578dc5;fill-opacity:1;stroke:none;stroke-width:0.1457504;stroke-linecap:butt;stroke-linejoin:miter;stroke-miterlimit:4;stroke-dasharray:none;stroke-dashoffset:0;stroke-opacity:1"
           id="rect4829"
           width="33.598763"
           height="33.598763"
           x="101.76582"
           y="168.22989" />
      </g>
    </mask>
    <clipPath
       clipPathUnits="userSpaceOnUse"
       id="clipPath4853">
      <path
         style="fill:#4e7dab;fill-opacity:1;stroke:none;stroke-width:0.15277882px;stroke-linecap:butt;stroke-linejoin:miter;stroke-opacity:1"
         d="m 17.061585,168.35154 -67.03291,-0.0227 0.0035,3.79683 z"
         id="path4855"
         inkscape:connector-curvature="0" />
    </clipPath>
    <clipPath
       clipPathUnits="userSpaceOnUse"
       id="clipPath4857">
      <path
         style="fill:#4e7dab;fill-opacity:1;stroke:none;stroke-width:0.15277882px;stroke-linecap:butt;stroke-linejoin:miter;stroke-opacity:1"
         d="m 17.061585,168.35154 -67.03291,-0.0227 0.0035,3.79683 z"
         id="path4859"
         inkscape:connector-curvature="0" />
    </clipPath>
    <clipPath
       clipPathUnits="userSpaceOnUse"
       id="clipPath4873">
      <path
         inkscape:connector-curvature="0"
         id="path4875"
         d="m -80.436897,-134.84488 94.93643,0.0234 -0.005,-3.91921 z"
         style="fill:#588fc6;fill-opacity:1;stroke:#588fc6;stroke-width:0.18472448px;stroke-linecap:butt;stroke-linejoin:miter;stroke-opacity:1" />
    </clipPath>
    <clipPath
       clipPathUnits="userSpaceOnUse"
       id="clipPath4877">
      <path
         inkscape:connector-curvature="0"
         id="path4879"
         d="m -80.436897,-134.84488 94.93643,0.0234 -0.005,-3.91921 z"
         style="fill:#588fc6;fill-opacity:1;stroke:#588fc6;stroke-width:0.18472448px;stroke-linecap:butt;stroke-linejoin:miter;stroke-opacity:1" />
    </clipPath>
    <clipPath
       clipPathUnits="userSpaceOnUse"
       id="clipPath4881">
      <path
         inkscape:connector-curvature="0"
         id="path4883"
         d="m -80.436897,-134.84488 94.93643,0.0234 -0.005,-3.91921 z"
         style="fill:#588fc6;fill-opacity:1;stroke:#588fc6;stroke-width:0.18472448px;stroke-linecap:butt;stroke-linejoin:miter;stroke-opacity:1" />
    </clipPath>
    <linearGradient
       id="gradientFill-1"
       x1="0.74144253"
       x2="590.86259"
       y1="3.6658269"
       y2="593.78698"
       gradientUnits="userSpaceOnUse"
       spreadMethod="pad"
       gradientTransform="scale(1.2219423,0.81836924)">
      <stop
         offset="0"
         stop-color="rgb(203,206,208)"
         stop-opacity="1"
         id="stop976" />
      <stop
         offset="1"
         stop-color="rgb(132,131,139)"
         stop-opacity="1"
         id="stop978" />
    </linearGradient>
    <linearGradient
       id="gradientFill-2"
       x1="301.02603"
       x2="703.06751"
       y1="151.40061"
       y2="553.44209"
       gradientUnits="userSpaceOnUse"
       spreadMethod="pad"
       gradientTransform="scale(0.9899476,1.0101545)">
      <stop
         offset="0"
         stop-color="rgb(39,109,195)"
         stop-opacity="1"
         id="stop981" />
      <stop
         offset="1"
         stop-color="rgb(22,92,170)"
         stop-opacity="1"
         id="stop983" />
    </linearGradient>
  </defs>
  <sodipodi:namedview
     id="base"
     pagecolor="#ffffff"
     bordercolor="#666666"
     borderopacity="1.0"
     inkscape:pageopacity="0.0"
     inkscape:pageshadow="2"
     inkscape:zoom="0.38217594"
     inkscape:cx="417.69721"
     inkscape:cy="476.23842"
     inkscape:document-units="mm"
     inkscape:current-layer="layer1"
     showgrid="false"
     inkscape:window-width="1920"
     inkscape:window-height="1017"
     inkscape:window-x="1912"
     inkscape:window-y="-8"
     inkscape:window-maximized="1"
     fit-margin-top="0"
     fit-margin-left="0"
     fit-margin-right="0"
     fit-margin-bottom="0"
     inkscape:document-rotation="0" />
  <metadata
     id="metadata5">
    <rdf:RDF>
      <cc:Work
         rdf:about="">
        <dc:format>image/svg+xml</dc:format>
        <dc:type
           rdf:resource="http://purl.org/dc/dcmitype/StillImage" />
        <dc:title />
      </cc:Work>
    </rdf:RDF>
  </metadata>
  <g
     inkscape:label="Layer 1"
     inkscape:groupmode="layer"
     id="layer1"
     transform="translate(-36.586189,-70.436586)">
    <path
       inkscape:transform-center-y="-6.6020762e-06"
       inkscape:transform-center-x="3.0492663e-06"
       d="m 166.65403,183.65599 -64.03392,36.97 -64.033921,-36.97 0,-73.94 64.033921,-36.970003 64.03392,36.970003 z"
       inkscape:randomized="0"
       inkscape:rounded="0"
       inkscape:flatsided="true"
       sodipodi:arg2="1.0471976"
       sodipodi:arg1="0.52359878"
       sodipodi:r2="64.03392"
       sodipodi:r1="73.940002"
       sodipodi:cy="146.68599"
       sodipodi:cx="102.62011"
       sodipodi:sides="6"
       id="path840"
       style="opacity:1;fill:#4a154b;fill-opacity:1;stroke:#ecb22e;stroke-width:4;stroke-miterlimit:4;stroke-dasharray:none;stroke-dashoffset:0;stroke-opacity:1"
       sodipodi:type="star" />
    <g
       id="g953"
       transform="matrix(0.53974376,0,0,0.51371042,29.754702,61.175101)">
	<g
   id="g933">
		<path
   class="st0"
   d="m 99.4,151.2 c 0,7.1 -5.8,12.9 -12.9,12.9 -7.1,0 -12.9,-5.8 -12.9,-12.9 0,-7.1 5.8,-12.9 12.9,-12.9 h 12.9 z"
   id="path929" />

		<path
   class="st0"
   d="m 105.9,151.2 c 0,-7.1 5.8,-12.9 12.9,-12.9 7.1,0 12.9,5.8 12.9,12.9 v 32.3 c 0,7.1 -5.8,12.9 -12.9,12.9 -7.1,0 -12.9,-5.8 -12.9,-12.9 z"
   id="path931" />

	</g>

	<g
   id="g939">
		<path
   class="st1"
   d="m 118.8,99.4 c -7.1,0 -12.9,-5.8 -12.9,-12.9 0,-7.1 5.8,-12.9 12.9,-12.9 7.1,0 12.9,5.8 12.9,12.9 v 12.9 z"
   id="path935" />

		<path
   class="st1"
   d="m 118.8,105.9 c 7.1,0 12.9,5.8 12.9,12.9 0,7.1 -5.8,12.9 -12.9,12.9 H 86.5 c -7.1,0 -12.9,-5.8 -12.9,-12.9 0,-7.1 5.8,-12.9 12.9,-12.9 z"
   id="path937" />

	</g>

	<g
   id="g945">
		<path
   class="st2"
   d="m 170.6,118.8 c 0,-7.1 5.8,-12.9 12.9,-12.9 7.1,0 12.9,5.8 12.9,12.9 0,7.1 -5.8,12.9 -12.9,12.9 h -12.9 z"
   id="path941" />

		<path
   class="st2"
   d="m 164.1,118.8 c 0,7.1 -5.8,12.9 -12.9,12.9 -7.1,0 -12.9,-5.8 -12.9,-12.9 V 86.5 c 0,-7.1 5.8,-12.9 12.9,-12.9 7.1,0 12.9,5.8 12.9,12.9 z"
   id="path943" />

	</g>

	<g
   id="g951">
		<path
   class="st3"
   d="m 151.2,170.6 c 7.1,0 12.9,5.8 12.9,12.9 0,7.1 -5.8,12.9 -12.9,12.9 -7.1,0 -12.9,-5.8 -12.9,-12.9 v -12.9 z"
   id="path947" />

		<path
   class="st3"
   d="m 151.2,164.1 c -7.1,0 -12.9,-5.8 -12.9,-12.9 0,-7.1 5.8,-12.9 12.9,-12.9 h 32.3 c 7.1,0 12.9,5.8 12.9,12.9 0,7.1 -5.8,12.9 -12.9,12.9 z"
   id="path949" />

	</g>

</g>
    <g
       aria-label="slackr"
       id="text1010"
       style="font-style:normal;font-variant:normal;font-weight:normal;font-stretch:normal;font-size:25.4px;line-height:1.25;font-family:'Segoe UI';-inkscape-font-specification:'Segoe UI, Normal';font-variant-ligatures:normal;font-variant-caps:normal;font-variant-numeric:normal;font-feature-settings:normal;text-align:start;letter-spacing:0px;word-spacing:0px;writing-mode:lr-tb;text-anchor:start;fill:#ffffff;fill-opacity:1;stroke:#ffffff;stroke-width:0.264583">
      <path
         d="m 77.213908,184.60439 q 0,2.158 -1.649511,3.34863 -1.63711,1.17822 -4.576465,1.17822 -0.855762,0 -2.120801,-0.17363 -1.252637,-0.17363 -2.046387,-0.42168 v -3.7083 q 2.344043,1.04179 3.919141,1.04179 1.550293,0 1.550293,-0.80615 0,-0.33486 -0.359668,-0.5457 -0.359668,-0.22324 -1.885156,-0.73174 -1.686719,-0.5333 -2.455664,-1.41387 -0.768946,-0.88056 -0.768946,-2.29443 0,-1.97197 1.562696,-3.11299 1.575097,-1.15342 4.415234,-1.15342 1.661914,0 3.522265,0.4837 v 3.55947 q -0.781347,-0.33487 -1.711523,-0.55811 -0.930176,-0.22324 -1.562695,-0.22324 -0.520899,0 -0.830957,0.17363 -0.310059,0.17364 -0.310059,0.48369 0,0.35967 0.334863,0.58291 0.334864,0.22325 1.339454,0.53331 1.947167,0.5705 2.790527,1.46347 0.843359,0.89297 0.843359,2.29444 z"
         style="font-style:normal;font-variant:normal;font-weight:900;font-stretch:normal;font-size:25.4px;font-family:'Segoe UI';-inkscape-font-specification:'Segoe UI Heavy';fill:#ffffff;stroke:#ffffff;stroke-width:0.264583"
         id="path1026" />
      <path
         d="m 79.161076,188.82118 v -18.80195 h 5.283399 v 18.80195 z"
         style="font-style:normal;font-variant:normal;font-weight:900;font-stretch:normal;font-size:25.4px;font-family:'Segoe UI';-inkscape-font-specification:'Segoe UI Heavy';fill:#ffffff;stroke:#ffffff;stroke-width:0.264583"
         id="path1028" />
      <path
         d="m 94.031486,188.82118 v -1.93476 h -0.04961 q -1.265039,2.24482 -3.869531,2.24482 -1.79834,0 -2.815332,-1.0666 -1.016992,-1.0666 -1.016992,-2.85254 0,-3.74551 4.601269,-4.34082 l 3.150195,-0.40928 q 0,-0.62011 -0.558105,-1.01699 -0.558106,-0.39687 -1.500684,-0.39687 -2.133203,0 -4.50205,1.21543 v -3.43545 q 1.029394,-0.44649 2.579687,-0.73174 1.550293,-0.28526 2.654102,-0.28526 3.237011,0 4.688085,1.38907 1.463477,1.37666 1.463477,4.61367 v 7.00732 z m -3.12539,-4.31601 q 0,0.5209 0.322461,0.85576 0.334863,0.33486 0.942578,0.33486 0.830957,0 1.339453,-0.62012 0.520898,-0.62011 0.520898,-1.5875 v -0.48369 l -1.785937,0.24805 q -1.339453,0.22324 -1.339453,1.25264 z"
         style="font-style:normal;font-variant:normal;font-weight:900;font-stretch:normal;font-size:25.4px;font-family:'Segoe UI';-inkscape-font-specification:'Segoe UI Heavy';fill:#ffffff;stroke:#ffffff;stroke-width:0.264583"
         id="path1030" />
      <path
         d="m 111.70483,188.46151 q -0.5085,0.29766 -1.59991,0.4837 -1.0914,0.18603 -2.51767,0.18603 -2.00918,0 -3.59668,-0.80615 -1.5751,-0.81856 -2.44326,-2.28203 -0.86817,-1.46348 -0.86817,-3.28662 0,-2.18282 0.91778,-3.73311 0.93017,-1.56269 2.6417,-2.38125 1.71152,-0.83096 3.96875,-0.83096 1.24023,0 2.22002,0.16123 0.99218,0.16123 1.27744,0.37207 v 4.11758 q -0.39688,-0.31006 -1.14102,-0.5457 -0.74414,-0.23564 -1.37666,-0.23564 -1.55029,0 -2.35644,0.74414 -0.79375,0.73173 -0.79375,2.07119 0,1.31465 0.78134,2.04638 0.79375,0.71934 2.17041,0.71934 1.47588,0 2.71612,-0.70693 z"
         style="font-style:normal;font-variant:normal;font-weight:900;font-stretch:normal;font-size:25.4px;font-family:'Segoe UI';-inkscape-font-specification:'Segoe UI Heavy';fill:#ffffff;stroke:#ffffff;stroke-width:0.264583"
         id="path1032" />
      <path
         d="m 121.97396,188.82118 -2.82773,-6.52363 h -0.0496 v 6.52363 h -5.2834 v -18.80195 h 5.2834 v 12.06748 h 0.0496 l 2.56729,-5.96553 h 5.95312 l -3.43545,5.8167 3.63389,6.8833 z"
         style="font-style:normal;font-variant:normal;font-weight:900;font-stretch:normal;font-size:25.4px;font-family:'Segoe UI';-inkscape-font-specification:'Segoe UI Heavy';fill:#ffffff;stroke:#ffffff;stroke-width:0.264583"
         id="path1034" />
      <path
         d="m 138.41947,180.64804 q -0.29765,-0.13643 -0.80615,-0.24805 -0.5085,-0.11162 -0.84336,-0.11162 -2.61689,0 -2.61689,3.02617 v 5.50664 h -5.2834 v -12.7 h 5.2834 v 2.23242 h 0.0496 q 0.48369,-1.20302 1.37666,-1.82314 0.89297,-0.63252 2.08359,-0.63252 0.43408,0 0.75654,0.14883 z"
         style="font-style:normal;font-variant:normal;font-weight:900;font-stretch:normal;font-size:25.4px;font-family:'Segoe UI';-inkscape-font-specification:'Segoe UI Heavy';fill:#ffffff;stroke:#ffffff;stroke-width:0.264583"
         id="path1036" />
    </g>
  </g>
  <style
     type="text/css"
     id="style927">
	.st0{fill:#E01E5A;}
	.st1{fill:#36C5F0;}
	.st2{fill:#2EB67D;}
	.st3{fill:#ECB22E;}
</style>
</svg>
